<svg xmlns="http://www.w3.org/2000/svg" viewBox="0 0 24 24"><path d="M22,3H19C19.8,5.7 19.7,6.83 18,9L20,9L19,12C22,10 23,2.4 22,2M11.74,9.94C12.67,9.61 13.1,8.53 12.77,7.6C12.44,6.67 11.36,6.24 10.43,6.57C9.5,6.9 9.07,7.98 9.4,8.91C9.73,9.84 10.81,10.27 11.74,9.94M11.58,19.28L9.98,22H5.65C5.9,20.75 7,19.84 8.08,19.25C10.21,18.19 11.2,16.06 11.58,19.28M14.63,5.5L9.5,10C9,10 8.75,9.5 8.5,9C4.46,13.04 4.12,16.25 4.12,18.56C1.4,18.56 2,13.75 2,12.5C2,9.06 3.63,6.2 5.5,4H1.5L3,1H16L15.5,4L14,6.5V15C21,14.5 18,9 14.63,5.5M13,18.94C13.7,18.94 17.32,18.86 15,17.5C14.55,17.17 13.33,16.44 12,13.5C11.31,15.46 10.36,18.94 13,18.94Z" fill="#ff4040"/></svg> 